<svg width="25" height="24" viewBox="0 0 25 24" fill="none" xmlns="http://www.w3.org/2000/svg">
<g clip-path="url(#clip0_601_681)">
<path d="M2.48779 6.83905C3.21436 5.32499 4.24092 4.0453 5.53467 2.98124C7.28779 1.5328 9.29873 0.660923 11.5534 0.393736C14.2019 0.0796731 16.6909 0.581236 18.9925 1.95936C19.5644 2.30155 20.0987 2.69061 20.6097 3.11249C20.7362 3.21561 20.7222 3.27655 20.6144 3.37967C19.569 4.4203 18.5237 5.46092 17.4878 6.51092C17.3659 6.6328 17.3003 6.62342 17.169 6.52499C14.1315 4.18592 9.70186 4.81874 7.43779 7.91249C7.03936 8.45624 6.71592 9.04217 6.49092 9.67967C6.47217 9.73592 6.43467 9.78749 6.40654 9.84374C5.80186 9.38436 5.19248 8.92499 4.59248 8.46092C3.88936 7.92186 3.18623 7.3828 2.48779 6.83905Z" fill="#E94335"/>
<path d="M6.40635 14.2406C6.60791 14.6859 6.77666 15.15 7.02979 15.5672C8.09385 17.3109 9.6126 18.4312 11.6142 18.8297C13.4188 19.1906 15.1532 18.9469 16.7704 18.0422C16.8267 18.014 16.8829 17.9859 16.9345 17.9578C16.9626 17.9859 16.986 18.0187 17.0142 18.0422C18.2235 18.9797 19.4376 19.9172 20.647 20.8547C20.0657 21.4312 19.4048 21.8953 18.7017 22.2984C16.6626 23.4609 14.4548 23.9297 12.1298 23.7515C9.23291 23.5265 6.73447 22.3828 4.67197 20.3203C3.76729 19.4156 3.02197 18.3937 2.48291 17.2265C2.98447 16.8422 3.48604 16.4625 3.9876 16.0781C4.79385 15.464 5.6001 14.8547 6.40635 14.2406Z" fill="#34A853"/>
<path d="M20.6517 20.8547C19.4423 19.9172 18.2282 18.9797 17.0189 18.0422C16.9907 18.0187 16.9626 17.9859 16.9392 17.9578C17.3564 17.6344 17.7829 17.3203 18.1251 16.9078C18.697 16.2234 19.0767 15.45 19.2736 14.5828C19.297 14.475 19.2782 14.4375 19.1704 14.4422C19.1142 14.4469 19.0626 14.4422 19.0064 14.4422C17.0939 14.4422 15.1767 14.4375 13.2642 14.4469C13.0532 14.4469 13.0064 14.3906 13.0111 14.1891C13.0204 12.8297 13.0204 11.4703 13.0111 10.1109C13.0111 9.9375 13.0579 9.89062 13.2314 9.89062C16.7376 9.89531 20.2439 9.89531 23.7548 9.89062C23.9048 9.89062 23.9657 9.92812 24.0032 10.0875C24.2892 11.3766 24.2704 12.6703 24.097 13.9734C23.9564 15.0141 23.7032 16.0219 23.3142 16.9969C22.7376 18.4359 21.8892 19.6922 20.7736 20.7703C20.7314 20.8031 20.6892 20.8266 20.6517 20.8547Z" fill="#4285F3"/>
<path d="M6.40634 14.2406C5.60009 14.8547 4.79384 15.4641 3.98759 16.0781C3.48602 16.4578 2.98446 16.8422 2.4829 17.2266C2.09384 16.5047 1.84071 15.7406 1.63446 14.9531C1.24071 13.4297 1.17977 11.8828 1.3954 10.3312C1.56415 9.1125 1.91571 7.94062 2.4829 6.84375C3.18602 7.38281 3.88446 7.92656 4.58759 8.46563C5.19227 8.92969 5.79696 9.38906 6.40165 9.84844C6.29852 10.35 6.15321 10.8422 6.10634 11.3578C6.02196 12.2953 6.11102 13.2094 6.37821 14.1094C6.39696 14.1469 6.40165 14.1937 6.40634 14.2406Z" fill="#FABB06"/>
</g>
<defs>
<clipPath id="clip0_601_681">
<rect width="24" height="24" fill="white" transform="translate(0.5)"/>
</clipPath>
</defs>
</svg>
