<svg xmlns="http://www.w3.org/2000/svg" width="16" height="16" fill="none" viewBox="0 0 16 16">
  <path fill="#ADC178" d="M7.907 10.605 11.42 7.13H4.393l3.514 3.474Zm0 5.395c-1.216 0-2.006-.163-3.075-.62-1.069-.455-1.845-.955-2.636-1.736C1.406 12.863.9 12.095.44 11.04-.02 9.982.001 9.2 0 7.999 0 6.8-.022 6.018.44 4.96c.46-1.056.966-1.823 1.756-2.605.791-.781 1.567-1.281 2.636-1.737C5.9.163 6.692.001 7.907 0c1.215 0 2.005.162 3.074.618 1.069.456 1.845.956 2.636 1.737.79.782 1.295 1.549 1.757 2.605C15.835 6.017 16 6.798 16 8c0 1.2-.165 1.982-.626 3.039-.462 1.056-.967 1.824-1.757 2.605-.791.782-1.567 1.28-2.636 1.737-1.069.456-1.86.62-3.074.619Zm0-1.053c1.961 0 3.623-.673 4.985-2.02C14.254 11.583 14.934 9.94 14.934 8c0-1.94-.68-3.583-2.042-4.929-1.362-1.346-3.024-2.019-4.985-2.019-1.962 0-3.624.673-4.986 2.02C1.56 4.416.88 6.06.88 8c0 1.939.68 3.582 2.042 4.928 1.362 1.346 3.024 2.019 4.986 2.019Z"/>
</svg>
